<svg width="1053" height="745" viewBox="0 0 1053 745" fill="none" xmlns="http://www.w3.org/2000/svg">
<path d="M799.835 163.371C718.017 165.03 624.559 197.95 547.914 224.163L562.216 239.632C601.413 223.008 645.731 211.212 687.573 203.842C724.121 197.405 764.479 187.972 798.886 204.873C814.023 212.308 815.085 222.621 815.085 229.033L864.023 234.218C868.931 231.506 873.001 221.461 875.023 216.621C883.094 197.299 868.427 174.723 848.523 169.527C832.619 165.376 816.225 163.038 799.835 163.371V163.371ZM581.412 264.96C584.2 263.608 588.282 261.218 590.878 262.308L596.409 241.336C588.586 241.84 577.94 245.267 573.051 249.078L581.412 264.96ZM676.242 323.933C667.971 328.789 662.648 332.308 655.179 339.666L652.648 362.308C656.518 360.344 671.661 352.116 674.023 347.683L676.242 323.933V323.933ZM474.023 352.308L489.242 364.558C495.023 361.758 502.107 358.537 507.273 354.527L504.023 337.59C496.288 342.088 484.023 346.049 474.023 352.308ZM649.085 380.246L647.46 399.715C653.409 398.192 670.198 389.031 673.273 384.308L671.054 366.84C664.96 369.366 649.57 379.851 649.085 380.246ZM290.95 432.308C295.084 428.438 311.48 409.446 314.023 406.949L304.023 388.873L290.95 432.308V432.308ZM414.023 435.962C409.552 438.32 376.851 410.541 376.851 410.541L325.622 433.005C315.622 456.994 346.337 465.983 370.196 466.283C397.572 466.627 468.704 447.84 484.907 440.452L458.441 426.211C444.522 429.561 428.017 432.952 414.023 435.962V435.962ZM121.023 514.777C115.45 528.189 120.312 544.159 131.117 553.621C149.116 569.384 174.195 571.311 197.053 571.96C259.508 573.735 320.703 558.177 380.319 541.321C412.397 532.25 444.023 522.308 474.898 509.027C480.183 506.754 478.103 493.113 470.554 492.308C458.346 492.022 445.8 499.686 434.309 503.126C371.044 522.066 306.045 541.648 239.402 538.689C220.629 537.856 199.355 533.827 186.835 518.308C182.855 513.374 179.988 504.368 180.523 498.215C182.176 479.182 213.304 440.965 224.023 432.308L190.8 424.937C161.813 453.274 136.807 476.791 121.023 514.777ZM444.023 469.178C384.023 482.308 299.832 496.858 279.68 467.35C276.042 462.412 281.361 449.299 285.795 442.308L246.144 435.601C228.598 452.308 211.568 480.392 222.773 499.558C226.162 505.355 235.897 510.955 241.929 512.808C283.301 525.522 327.151 516.326 368.43 507.861C409.331 499.472 455.052 485.439 494.023 470.556L488.558 452.308C474.023 455.286 457.795 463.554 444.023 469.178V469.178ZM749.523 220.808C764.814 221.34 773.784 232.934 784.023 242.308L759.773 248.558L749.523 220.808Z" fill="#E543A7" stroke="white" stroke-width="4.5"/>
<path d="M245.577 202.931C235.02 205.664 235.397 219.783 229.483 227.65C222.858 236.463 215.743 245.198 213.077 256.338C211.604 262.491 211.637 270.452 207.202 274.806C200.538 281.35 204.343 290.912 206.015 298.369C206.721 301.52 206.421 304.815 206.108 308.025C201.691 298.681 198.89 287.094 204.327 277.338C210.392 266.454 210.695 250.656 200.577 241.681C192.579 234.588 181.261 231.044 170.952 231.525C166.411 231.737 163.54 239.659 160.014 238.275C156.489 236.891 154.442 233.726 151.369 231.693C148.297 229.66 142.878 237.697 140.577 241.681C133.436 254.047 120.432 266.312 123.108 281.869C125.635 296.557 119.7 310.543 118.008 324.949C116.628 336.704 116.125 349.725 112.861 361.119C112.147 363.612 109.725 363.869 109.546 367.588C109.317 372.325 110.115 377.216 106.144 381.119C101.091 386.084 107.694 393.478 105.034 400.119C98.5759 416.242 102.491 435.778 112.202 450.15C116.59 456.644 118.069 457.58 124.023 454.308C131.496 448.903 149.837 448.776 155.858 441.088C158.011 438.339 154.778 434.292 156.421 432.463C160.29 428.154 171.793 422.806 167.358 415.525C165.749 412.883 164.396 410.772 165.702 407.744C167.335 403.957 166.764 394.188 168.983 395.744C175.871 400.57 179.267 419.262 188.233 428.994C193.405 434.761 199.513 442.537 207.233 442.994C214.646 443.433 220.791 436.288 228.421 435.931C231.598 435.783 236.425 431.946 238.514 434.338C243.248 439.755 248.661 444.493 253.639 449.681C258.508 454.755 266.064 452.991 272.139 450.275C279.763 446.867 292.992 447.411 295.034 437.366C296.703 429.158 301.222 422.34 302.691 413.984C304.319 404.724 304.555 392.913 312.202 386.775C314.586 384.861 321.44 381.715 321.889 384.025C324.398 396.919 317.709 413.755 324.338 427.618C329.019 437.407 330.543 450.154 339.046 456.931C344.999 461.676 351.346 452.895 354.327 447.588C359.303 438.727 366.938 431.412 373.701 423.546C374.802 422.265 376.071 419.351 376.921 419.65C378.044 420.045 378.923 423.642 380.117 425.555C385.988 434.953 394.762 443.452 405.639 445.463C420.046 448.125 431.109 434.205 434.452 421.306C435.291 418.068 434.235 412.087 439.147 416.701C448.923 425.887 460.617 433.632 472.522 440.086C479.436 443.834 487.414 445.305 494.452 448.775C504.185 453.573 514.189 460.489 526.005 458.36C561.464 451.969 597.6 448.021 633.233 442.306C643.291 437.572 649.127 426.849 653.827 417.275C656.693 411.436 656.034 404.747 652.264 399.181C649.799 395.541 653.369 390.691 652.827 386.213C652.1 380.214 654.7 374.652 655.983 368.994C656.507 366.684 655.252 363.467 655.537 361.119C656.508 353.125 659.806 346.106 660.827 338.025C662.035 328.47 666.642 319.906 668.796 310.619C669.333 308.301 672.569 311.416 674.639 311.713C679.337 312.385 684.015 308.979 687.983 309.713C692.364 310.523 689.598 317.746 691.171 321.681C693.551 327.637 688.712 332.553 688.333 338.612C687.592 350.447 687.963 362.451 686.358 374.205C685.921 377.406 684.819 380.51 684.546 383.744C683.825 392.254 684.975 401.022 685.586 409.623C686.199 418.251 686.323 426.717 687.909 435.076L703.327 447.556L798.858 448.525C811.028 452.11 824.452 448.734 835.764 443.806C852.182 436.655 864.267 423.224 877.889 412.119C883.934 407.191 884.605 398.574 890.796 393.65C908.448 379.611 914.693 355.441 915.421 333.463C916.224 309.182 910.794 284.019 895.073 265.029C888.929 257.606 880.263 249.426 874.858 244.525C869.454 239.624 865.605 242.997 861.448 241.938C857.893 241.031 855.939 239.469 852.237 239.166C847.633 238.79 841.305 240.005 837.101 242.276C833.138 244.417 828.853 245.065 824.389 242.463C811.896 235.178 794.983 243.507 787.077 254.713C784.595 258.231 784.479 256.041 783.389 253.15C780.869 246.463 778.863 239.741 772.475 237.143C766.876 234.866 758.572 230.715 753.068 228.569C748.739 226.881 742.143 231.758 735.832 230.454C726.412 228.508 717.095 232.448 707.509 233.158C696.763 233.954 685.561 234.289 675.743 239.004C673.994 239.844 672.309 241.554 670.265 238.595C665.148 231.19 660.005 227.173 655.166 221.119C651.242 216.208 635.435 227.997 626.858 231.025C612.947 235.937 611.484 254.28 607.577 267.025C599.024 294.924 594.757 334.621 585.14 351.65C583.556 354.454 582.829 346.425 583.451 339.264C583.702 336.384 584.613 333.745 584.89 331.806C585.816 325.312 583.061 318.994 585.419 312.275C590.974 296.442 590.929 278.397 584.452 262.463C582.499 257.656 578.417 253.798 576.796 249.338C573.53 240.353 562.022 240.179 554.751 236.8C542.526 231.119 540.994 232.42 536.483 239.119C532.243 245.417 528.979 252.295 525.671 259.025C516.872 241.139 498.552 230.923 480.417 224.348C461.458 217.476 440.46 209.583 420.483 215.088C400.384 220.626 384.433 239.519 381.921 260.494C381.559 263.513 381.445 264.672 380.39 261.025C379.633 258.412 378.109 256.297 376.225 254.542C374.239 252.692 369.698 251.626 369.546 250.025C369.373 248.205 374.864 244.301 375.407 241.119C376.112 236.982 373.221 233.321 369.202 230.931C359.66 225.258 352.558 211.474 340.265 213.213C330.492 214.595 322.951 222.319 314.483 227.088C307.889 230.801 304.855 238.868 297.577 242.306C289.314 246.21 284.568 255.625 281.14 263.9C279.327 268.275 284.856 271.064 282.797 275.85C277.144 288.991 274.054 303.326 268.702 316.713C270.525 296.224 272.73 275.609 274.827 255.275C276.604 238.043 261.771 225.109 254.796 210.306C253.18 206.877 249.515 201.912 245.577 202.931V202.931ZM767.015 300.838C765.294 307.376 763.36 313.755 760.296 319.838C761.109 313.772 761.901 307.781 762.452 301.681C763.972 301.458 765.525 301.258 767.015 300.838ZM842.983 313.713C848.998 314.597 845.259 324.013 846.702 328.713C848.434 334.353 848.86 340.495 845.421 346.056C839.446 355.717 839.08 369.927 828.189 376.258C825.826 377.632 821.219 382.9 820.421 381.088C817.809 375.16 821.482 366.552 821.45 359.088C821.402 347.787 826.783 337.013 826.796 325.494C826.804 318.164 836.445 312.751 842.983 313.713V313.713ZM517.921 321.775C518.761 334.071 518.247 346.443 517.358 358.619C517.843 370.121 520.147 381.448 523.202 392.525C506.363 378.87 487.611 365.933 471.702 352.244C483.522 346.708 493.293 337.805 504.851 331.758C509.556 328.686 514.099 325.236 517.89 321.119L517.921 321.775H517.921ZM751.233 369.4C753.316 367.806 754.162 382.344 753.202 389.025C752.366 394.847 753.283 400.914 754.983 406.556C751.71 405.198 747.483 405.265 748.327 399.994C749.925 390.015 748.245 371.688 751.233 369.4Z" fill="black"/>
<path d="M229.335 184.121C218.778 186.853 219.155 200.973 213.242 208.84C206.617 217.653 199.501 226.388 196.835 237.527C195.363 243.681 195.395 251.642 190.96 255.996C184.296 262.54 188.102 272.101 189.773 279.558C190.479 282.709 190.18 286.005 189.867 289.215C185.449 279.871 182.649 268.283 188.085 258.527C194.15 247.644 194.453 231.845 184.335 222.871C176.338 215.777 165.019 212.234 154.71 212.715C150.169 212.926 147.298 220.848 143.773 219.465C140.248 218.081 138.201 214.916 135.128 212.883C132.055 210.85 126.636 218.887 124.335 222.871C117.194 235.237 104.19 247.502 106.867 263.058C109.394 277.747 103.459 291.732 101.767 306.139C100.386 317.893 99.883 330.915 96.6195 342.308C95.9054 344.802 93.4833 345.058 93.3041 348.777C93.0758 353.515 93.8737 358.406 89.9023 362.308C84.8493 367.274 91.4523 374.668 88.7924 381.308C82.3343 397.431 86.2493 416.967 95.9603 431.34C100.348 437.833 101.827 438.769 107.781 435.498C115.254 430.093 133.596 429.966 139.617 422.277C141.769 419.528 138.536 415.482 140.179 413.652C144.048 409.343 155.551 403.996 151.117 396.715C149.507 394.073 148.154 391.961 149.46 388.933C151.094 385.147 150.522 375.378 152.742 376.933C159.629 381.76 163.026 400.452 171.992 410.183C177.163 415.951 183.272 423.726 190.992 424.183C198.404 424.622 204.549 417.478 212.179 417.121C215.356 416.972 220.183 413.135 222.273 415.527C227.006 420.945 232.42 425.682 237.398 430.871C242.266 435.945 249.822 434.181 255.898 431.465C263.521 428.056 276.751 428.601 278.793 418.556C280.461 410.348 284.98 403.53 286.449 395.174C288.078 385.913 288.313 374.103 295.96 367.965C298.345 366.051 305.198 362.905 305.648 365.215C308.156 378.109 301.468 394.944 308.097 408.807C312.777 418.597 314.301 431.344 322.804 438.121C328.757 442.866 335.105 434.084 338.085 428.777C343.061 419.917 350.697 412.601 357.459 404.736C358.561 403.455 359.829 400.54 360.679 400.84C361.802 401.235 362.681 404.832 363.876 406.744C369.746 416.142 378.521 424.642 389.398 426.652C403.804 429.314 414.867 415.394 418.21 402.496C419.05 399.257 417.993 393.276 422.905 397.891C432.681 407.076 444.375 414.821 456.28 421.275C463.194 425.024 471.172 426.495 478.21 429.965C487.944 434.763 497.948 441.679 509.764 439.549C545.222 433.159 581.359 429.211 616.992 423.496C627.049 418.762 632.886 408.039 637.585 398.465C640.451 392.626 639.793 385.937 636.023 380.371C633.558 376.731 637.128 371.881 636.585 367.403C635.859 361.404 638.458 355.841 639.742 350.183C640.265 347.874 639.011 344.656 639.296 342.308C640.267 334.314 643.564 327.295 644.585 319.215C645.793 309.66 650.401 301.096 652.554 291.808C653.091 289.491 656.327 292.606 658.398 292.902C663.096 293.575 667.773 290.168 671.742 290.902C676.123 291.712 673.357 298.936 674.929 302.871C677.309 308.827 672.47 313.743 672.091 319.801C671.35 331.636 671.721 343.641 670.117 355.395C669.68 358.596 668.578 361.7 668.304 364.933C667.584 373.444 668.734 382.212 669.344 390.812C669.957 399.441 670.082 407.906 671.668 416.266L687.085 428.746L782.617 429.715C794.787 433.3 808.21 429.924 819.523 424.996C835.94 417.844 848.025 404.414 861.648 393.308C867.693 388.38 868.363 379.763 874.554 374.84C892.207 360.801 898.452 336.631 899.179 314.652C899.983 290.371 894.552 265.209 878.832 246.218C872.687 238.795 864.021 230.616 858.617 225.715C853.212 220.813 849.363 224.187 845.207 223.127C841.652 222.221 839.698 220.658 835.995 220.356C831.391 219.98 825.064 221.194 820.86 223.466C816.897 225.607 812.611 226.255 808.148 223.652C795.654 216.368 778.741 224.697 770.835 235.902C768.353 239.42 768.238 237.231 767.148 234.34C764.627 227.652 762.621 220.931 756.234 218.333C750.635 216.056 742.331 211.905 736.826 209.758C732.497 208.07 725.901 212.948 719.591 211.644C710.171 209.697 700.853 213.638 691.267 214.348C680.522 215.143 669.319 215.478 659.501 220.194C657.753 221.034 656.068 222.744 654.023 219.784C648.906 212.38 643.763 208.363 638.925 202.308C635 197.398 619.193 209.186 610.617 212.215C596.705 217.127 595.243 235.47 591.335 248.215C582.782 276.114 578.515 315.811 568.898 332.84C567.315 335.643 566.587 327.614 567.21 320.453C567.46 317.574 568.371 314.934 568.648 312.996C569.574 306.501 566.819 300.184 569.177 293.465C574.732 277.632 574.687 259.587 568.21 243.652C566.257 238.846 562.175 234.987 560.554 230.527C557.288 221.542 545.781 221.369 538.51 217.99C526.284 212.308 524.752 213.609 520.242 220.308C516.001 226.606 512.738 233.485 509.429 240.215C500.631 222.328 482.31 212.112 464.175 205.538C445.217 198.665 424.218 190.772 404.242 196.277C384.142 201.816 368.191 220.709 365.679 241.683C365.318 244.702 365.203 245.862 364.148 242.215C363.392 239.602 361.867 237.487 359.983 235.732C357.997 233.881 353.456 232.815 353.304 231.215C353.131 229.395 358.623 225.49 359.165 222.308C359.87 218.172 356.98 214.51 352.96 212.121C343.418 206.447 336.316 192.663 324.023 194.402C314.251 195.784 306.709 203.509 298.242 208.277C291.647 211.991 288.614 220.058 281.335 223.496C273.072 227.399 268.326 236.814 264.898 245.09C263.085 249.464 268.614 252.253 266.555 257.04C260.902 270.18 257.813 284.516 252.46 297.902C254.283 277.414 256.488 256.798 258.585 236.465C260.362 219.233 245.529 206.299 238.554 191.496C236.938 188.067 233.273 183.102 229.335 184.121V184.121ZM750.773 282.027C749.053 288.565 747.119 294.945 744.054 301.027C744.867 294.961 745.66 288.971 746.21 282.871C747.73 282.648 749.283 282.447 750.773 282.027ZM826.742 294.902C832.756 295.786 829.018 305.202 830.46 309.902C832.192 315.543 832.618 321.685 829.179 327.246C823.204 336.907 822.838 351.117 811.948 357.448C809.584 358.822 804.978 364.09 804.179 362.277C801.568 356.349 805.24 347.741 805.209 340.278C805.161 328.977 810.541 318.203 810.554 306.683C810.562 299.353 820.203 293.941 826.742 294.902V294.902ZM501.679 302.965C502.519 315.26 502.005 327.632 501.117 339.808C501.601 351.31 503.906 362.638 506.96 373.715C490.122 360.059 471.37 347.122 455.46 333.433C467.28 327.897 477.051 318.995 488.609 312.948C493.315 309.876 497.857 306.426 501.648 302.308L501.679 302.965H501.679V302.965ZM734.992 350.59C737.074 348.995 737.92 363.534 736.96 370.215C736.124 376.037 737.041 382.103 738.742 387.746C735.468 386.388 731.241 386.454 732.085 381.183C733.684 371.204 732.003 352.877 734.992 350.59V350.59Z" fill="black"/>
<path d="M229.867 190.152C227.122 190.265 220.511 211.913 214.398 217.683C203.242 228.214 201.677 244.37 197.617 258.277C197.054 260.206 193.567 260.972 192.929 262.84C192.067 265.364 193.797 271.271 194.992 275.402C198.23 286.601 193.456 298.542 193.992 309.996C194.179 314.001 193.414 316.018 191.429 309.183C187.401 295.314 180.036 286.131 178.648 271.933C177.567 260.876 187.389 251.022 186.21 239.808C185.607 234.067 182.417 228.458 177.992 225.246C172.784 221.465 165.424 220.5 158.46 218.371C154.919 217.288 152.358 223.233 146.742 225.402C144.034 226.448 141.798 225.765 138.71 223.465C133.043 219.242 131.597 222.308 126.398 230.371C119.898 240.451 109.826 251.074 112.992 264.152C115.52 274.597 110.763 284.272 109.523 294.558C107.448 311.772 104.023 326.92 101.741 345.091C101.55 346.608 99.4598 348.399 99.1592 349.714C98.2998 353.471 99.8889 358.026 98.0854 361.277C96.9203 363.378 94.2202 365.155 94.0229 367.385C93.5476 372.756 97.2828 373.002 95.4488 378.277C93.9091 382.705 91.5426 391.865 91.544 396.902C91.547 407.313 95.4621 419.559 100.334 427.166C102.379 430.36 103.818 430.75 106.203 429.859C109.902 428.478 120.508 424.23 124.085 423.277C126 422.767 132.531 421.174 134.023 419.917C136.474 417.851 132.678 415.143 134.023 412.308C135.33 409.554 141.321 405.548 144.023 403.281C147.947 399.988 145.454 399.05 143.404 396.47C141.005 393.45 143.691 389.514 144.023 386.279C145.05 376.277 149.607 367.128 150.513 364.129C152.409 357.856 154.183 371.368 159.242 376.621C163.741 381.293 166.985 392.877 171.93 400.241C175.862 406.095 180.754 410.948 186.446 415.583C190.024 418.497 190.822 419.227 194.023 417.139C198.472 414.238 216.587 409.75 220.514 408.656C224.127 407.651 224.596 404.918 225.904 400.821C226.996 397.402 226.63 402.236 226.492 405.465C226.377 408.128 224.927 410.134 227.259 412.308C231.515 416.277 238.35 423.478 242.233 426.915C246.411 430.613 250.366 426.983 255.304 425.402C258.627 424.338 266.94 422.832 269.975 421.112C274.303 418.66 272.699 415.877 274.335 410.902C275.41 407.636 277.425 405.569 278.389 402.308C281.8 390.777 282.624 377.755 287.96 367.316C290.95 361.468 300.661 359.92 306.989 358.208C309.37 357.565 310.96 358.484 311.21 360.407C312.584 370.967 311.336 376.39 310.21 385.902C308.56 399.851 317.786 416.591 323.059 428.925C325.877 435.518 328.266 433.649 331.044 428.764C336.384 419.375 350.673 403.487 357.28 395.748C359.574 393.061 359.941 392.308 359.679 389.152C359.365 385.354 359.409 381.409 359.856 377.649C360.287 374.024 361.562 370.556 362.585 366.996C364.216 361.321 361.925 352.916 364.023 352.308C366.234 351.668 370.002 360.092 367.46 366.34C362.286 379.06 361.255 395.576 371.273 406.808C377.566 413.864 386.589 423.608 396.835 420.152C408.827 416.108 413.491 401.603 414.273 390.277C414.865 381.701 418.907 387.522 422.585 390.183C439.9 402.713 456.023 418.211 477.367 423.246C487.715 425.687 489.912 435.826 506.71 434.215L615.867 417.902C624.675 410.283 630.523 402.308 634.023 389.965C634.84 387.084 629.729 384.411 629.679 380.277C629.592 373.143 631.446 365.437 630.898 358.34C630.657 355.22 633.493 352.374 634.023 349.215C634.368 347.155 633.157 344.766 633.648 342.777C635.635 334.733 637.648 326.703 638.585 318.34C640.007 305.664 647.469 295.284 647.96 282.308C648.17 276.769 652.175 282.59 654.304 283.871C656.303 285.073 657.374 286.88 659.273 287.121C664.832 287.827 671.029 283.705 674.023 285.09C676.006 286.007 679.138 289.721 679.835 292.308C680.322 294.114 679.238 295.49 679.898 297.308C681.039 300.457 681.246 304.306 681.398 307.808C681.475 309.591 679.469 312.361 679.085 314.34C676.452 327.929 677.407 340.273 676.492 354.058C676.185 358.669 674.023 361.409 674.023 367.09C674.023 383.57 674.023 400.999 678.367 418.34L690.742 432.308L744.023 397.152C739.721 393.034 726.04 391.019 725.898 388.058C725.395 377.601 727.198 367.475 728.148 356.777C730.372 331.727 739.16 307.124 739.992 281.683C740.073 279.196 739.881 276.795 743.367 276.933C750.505 277.218 757.431 273.313 761.585 267.402C758.604 275.73 756.138 284.062 753.96 292.746C750.493 306.57 737.293 317.835 735.526 332.308C734.131 343.731 745.809 349.654 743.679 363.996C741.849 376.319 742.513 392.434 754.117 400.215L784.523 424.465C794.939 426.287 807.495 424.023 816.833 419.651C832.817 412.839 843.536 399.494 857.626 389.016C861.282 386.464 861.681 381.394 864.023 377.532C866.434 373.555 870.779 370.775 874.054 367.34C893.099 347.364 895.34 316.905 891.71 290.433C888.955 270.337 878.627 251.49 862.835 238.59C859.709 236.036 856.583 230.788 852.962 229.198C850.244 228.005 848.645 230.063 845.615 229.756C842.804 229.471 839.234 226.905 836.564 226.715C833.894 226.524 830.404 226.192 828.546 226.954C821.008 230.043 818.124 231.56 810.396 232.308C808.017 232.539 806.328 228.062 802.785 227.934C797.59 227.747 791.143 227.505 788.854 228.996C781.989 233.469 778.399 235.442 773.551 242.112C770.399 246.448 769.363 252.025 765.492 256.027C765.853 243.901 761.201 233.081 753.398 224.121C748.622 219.721 742.067 218.124 735.523 216.715C732.635 216.092 729.806 218.927 726.929 218.652C723.53 218.327 720.167 217.342 716.773 217.308C713.468 217.276 710.122 218.413 706.929 218.715C693.045 220.026 679.334 221.61 665.648 223.871C660.372 224.742 657.396 232.877 654.023 238.308C654.252 231.844 653.646 229.905 650.554 224.621C647.97 220.204 642.403 214.373 638.554 210.933C633.006 205.976 628.865 212.299 618.398 215.902C608.367 219.355 606.919 220.711 602.804 231.996C592.973 258.957 588.638 288.512 580.492 315.996C576.682 328.849 572.862 342.813 567.867 349.371C564.023 354.419 563.983 341.465 563.273 335.058C562.659 329.523 560.744 326.132 560.617 320.715C560.554 318.06 563.615 312.277 562.773 309.808C560.212 302.298 562.059 296.888 563.773 290.277C567.39 276.328 569.295 260.872 562.929 247.246C560.814 242.717 560.884 238.512 556.304 235.871C553.071 234.006 557.315 230.931 552.117 228.84C544.173 225.644 540.366 224.312 532.46 220.933C524.555 217.555 519.55 234.712 515.46 241.246C510.669 248.901 511.442 258.134 510.023 266.746C509.389 247.409 498.628 228.504 481.085 219.683C466.718 212.46 451.926 206.288 435.96 203.09C423.4 200.574 409.32 198.017 397.804 205.621C389.511 211.097 381.469 216.89 376.898 225.965C366.636 246.336 371.611 269.759 371.898 291.465C371.984 298.006 373.688 305.416 371.148 311.465C369.975 314.257 368.326 314.619 367.148 311.246C365.091 305.355 366.965 299.09 365.148 293.09C364.59 291.249 364.491 289.393 364.523 287.558C364.606 282.835 366.213 278.128 365.617 273.465C364.383 263.822 361.091 254.532 358.804 245.183C357.442 239.614 354.023 238.809 348.773 235.371C344.045 232.274 349.876 226.394 351.429 222.308C353.109 217.891 348.613 216.529 346.523 214.902C341.834 211.252 337.879 206.649 332.992 203.402C326.627 199.174 326.448 197.585 313.179 206.715C306.034 211.631 300.327 211.433 294.023 222.308C291.39 226.849 283.803 227.23 280.554 231.808C276.911 235.613 274.528 240.349 271.085 245.496C269.412 247.997 274.594 250.284 274.023 252.308C268.586 271.573 261.972 290.678 254.023 310.09C252.353 314.167 246.719 320.036 244.023 322.308C246.393 297.281 248.781 272.409 250.304 247.433C250.585 242.829 252.474 240.73 252.679 236.152C253.196 224.621 242.178 210.622 235.335 198.527C234.669 197.349 231.206 190.097 229.867 190.152V190.152ZM427.585 256.902C431.285 256.936 440.219 260.561 439.96 263.902C439.606 268.481 427.593 273.545 423.929 274.84C422.613 275.305 426.339 267.695 426.835 264.246C427.183 261.833 425.401 257.175 426.929 256.933C427.125 256.902 427.339 256.9 427.585 256.902L427.585 256.902ZM508.835 278.027C508.332 285.034 507.553 292.17 507.534 299.184C507.514 306.931 508.282 314.557 508.301 322.307C508.312 327.162 506.865 332.393 506.992 337.246C507.419 353.572 511.697 369.566 516.554 385.152C517.395 387.851 519.462 391.688 514.023 387.215C489.862 367.343 461.952 346.947 446.867 334.808C440.955 330.052 456.378 328.38 464.96 320.996C474.96 312.392 482.117 311.33 490.879 304.062C499.619 296.813 506.552 287.425 508.835 278.027V278.027ZM825.679 288.902C834.53 288.268 836.737 297.077 835.984 305.042C835.501 310.149 839.641 317.497 838.18 322.308C836.849 326.692 832.993 331.285 832.054 335.777C829.755 346.778 823.545 357.825 813.242 363.84C809.834 365.829 805.26 371.704 801.929 369.246C793.887 363.31 800.181 350.795 799.335 341.933C798.558 333.789 802.157 326.24 804.023 318.41C805.07 314.017 803.76 309.303 804.679 304.965C806.611 295.847 816.971 289.526 825.679 288.902V288.902Z" fill="white"/>
<path d="M99.3687 390.952C101.068 385.528 101.916 379.763 102.401 374.189C102.608 371.812 101.514 369.369 101.85 367.108C102.114 365.336 105.028 363.574 105.267 361.667C105.648 358.616 104.144 355.359 104.691 352.308C105.274 349.055 107.126 351.546 108.411 345.686C110.702 335.244 112.399 321.768 113.474 311.029C114.285 302.929 115.833 294.831 116.877 286.864C117.854 279.411 121.211 271.772 119.096 264.514C117.396 258.68 118.97 252.903 121.235 247.458C122.996 243.226 127.62 239.933 130.148 235.611C132.11 232.255 133.304 229.796 135.446 229.7C137.087 229.626 138.499 231.613 140.655 232.517C144.146 233.979 148.592 231.59 151.536 230.338C155.053 228.842 157.042 225.802 160.05 225.383C163.194 224.945 166.547 226.667 170.178 228.159C175.023 230.148 178.668 235.546 179.792 238.726C180.915 241.905 180.434 243.287 179.998 244.396C177.055 251.889 176.228 258.113 173.396 265.92C169.888 275.594 176.716 285.068 179.526 294.002C181.013 298.73 182.894 303.017 184.523 307.476C186.285 312.303 187.892 317.102 189.239 322.179C190.566 327.18 191.619 333.664 194.023 338.148C195.717 341.308 196.986 333.559 197.824 328.633C198.157 326.675 199.444 324.905 199.576 323.958C200.638 316.329 199.832 305.853 200.525 297.63C200.892 293.27 201.809 290.866 201.982 286.868C202.407 277.047 198.925 271.787 200.022 265.64C200.304 264.061 203.491 262.889 203.78 260.651C204.942 251.633 206.76 243.922 210.564 234.723C215.697 222.308 220.043 222.485 222.756 216.674C224.176 213.633 225.584 211.464 227.152 208.516C228.598 205.794 229.154 203.688 230.795 204.413C232.265 205.063 238.02 214.944 240.57 218.674C244.115 223.857 246.535 230.236 246.78 236.436C246.892 239.262 245.661 241.916 245.316 244.901C243.173 263.433 242.261 282.314 241.199 301.066C239.984 322.528 237.061 344.299 230.986 364.914C229.366 370.415 228.75 376.5 226.912 382.308C225.976 385.265 224.4 389.378 223.092 392.735C221.466 396.904 220.48 402.876 215.465 404.258C209.957 405.775 204.015 406.19 199.24 408.974C190.784 413.905 185.926 406.604 180.569 401.444C172.495 393.666 170.339 382.342 164.208 373.433C161.534 369.547 159.473 365.629 157.984 361.103C156.608 356.92 156.884 352.016 153.566 349.091C151.893 347.616 151.046 337.811 148.849 342.308C145.54 349.08 145.252 357.14 142.773 365.272C140.544 372.586 138.851 380.861 137.114 388.194C136.501 390.782 134.719 392.87 134.466 395.287C134.145 398.355 137.952 398.566 136.868 400.452C134.953 403.784 128.555 407.888 127.325 411.675C126.714 413.557 127.85 414.751 124.927 416.306C120.657 418.576 113.675 420.229 108.412 421.639C107.293 421.939 106.221 422.253 105.395 421.341C97.8759 413.036 98.1647 401.467 99.3687 390.952V390.952Z" fill="url(#paint0_linear)"/>
<path d="M322.202 411.214C320.219 407.829 318.799 404.078 317.485 400.347C314.721 392.502 316.495 384.427 316.986 376.287C317.401 369.407 316.554 363.449 316.977 356.519C317.229 352.407 317.156 349.104 311.552 350.825C302.617 353.57 292.734 355.259 285.093 360.196C280.919 362.893 280.553 368.681 279.465 373.858C277.5 383.209 274.252 392.2 271.908 401.381C270.925 405.232 268.2 408.294 267.136 412.227C265.927 416.696 261.004 417.772 255.358 419.143C250.847 420.239 247.638 420.94 244.37 419.072C240.43 416.821 235.1 413.83 233.368 409.948C230.15 402.734 236.139 393 237.992 384.87C239.854 376.7 245.78 366.975 240.042 359.05C235.548 352.84 238.207 343.22 242.264 337.526C246.411 331.706 249.948 326.158 254.837 320.866C257.783 317.676 258.19 313.305 260.287 309.73C263.497 304.259 264.462 297.171 267.023 290.825C272.285 277.783 276.731 264.458 280.599 251.788C281.32 249.425 278.382 247.63 278.859 245.638C279.664 242.276 283.187 238.384 285.254 235.661C289.016 230.705 295.908 231.445 298.872 225.964C300.505 222.943 302.179 220.141 305.487 218.552C311.957 215.445 317.647 209.793 324.04 207.501C329.69 205.475 336.184 215.343 341.693 218.649C349.302 223.215 337.075 233.524 341.6 238.458C343.8 240.856 347.689 241.268 350.262 243.383C354.479 246.849 354.68 254.69 356.054 260.28C357.682 266.899 361.513 273.978 359.248 280.817C356.582 288.867 360.85 296.312 360.114 304.431C359.644 309.616 361.137 314.15 364.025 317.912C368.471 323.705 361.046 328.346 359.099 333.47C356.552 340.175 358.949 348.316 357.952 355.561C357.083 361.878 356.584 368.61 354.532 374.465C352.472 380.34 356.005 388.257 351.845 393.019C347.768 397.686 344.152 403.933 339.307 408.453C335.798 411.727 329.027 424.455 327.127 420.9C325.575 417.996 323.902 414.417 322.202 411.214V411.214ZM307.335 312.316C310.463 310.225 317.164 315.387 316.978 309.16C316.772 302.308 317.482 296.609 316.112 291.387C314.422 284.95 307.092 302.386 305.792 306.634C305.19 308.602 302.379 315.63 307.335 312.316Z" fill="url(#paint1_linear)"/>
<path d="M488.82 421.424C483.162 417.712 482.161 418.362 475.061 416.304C467.611 414.145 460.94 411.075 454.924 406.437C451.507 403.803 447.956 401.51 444.612 399.332C438.549 395.385 432.521 389.541 426.081 385.434C423.423 383.739 417.279 378.705 414.023 376.746C410.894 374.862 410.262 376.53 409.375 383.136C408.054 392.969 405.99 404.055 399.182 411.715C391.531 420.323 380.907 408.805 375.301 402.308C368.481 394.406 369.292 384.809 371.235 375.372C372.472 369.36 375.662 363.088 374.995 356.899C374.644 353.639 372.297 350.27 369.93 347.24C365.391 341.429 360.35 331.212 366.877 324.181C370.448 320.335 375.718 316.587 377.616 312.308C379.258 308.607 378.275 304.984 378.099 300.086C377.786 291.398 377.564 282.884 376.967 274.236C376.246 263.794 375.573 253.325 377.096 242.914C378.073 236.233 381.788 229.873 384.832 224.532C386.872 220.954 388.851 217.409 393.101 215.367C400.297 211.909 406.46 205.731 414.305 205.508C421.872 205.293 429.351 207.96 436.555 209.382C445.976 211.241 455.837 213.228 463.762 217.908C471.332 222.378 479.774 225.001 486.749 230.487C493.275 235.621 497.987 242.604 500.596 250.613C503.721 260.207 506.046 270.793 501.704 280.543C498.934 286.764 495.744 292.602 490.942 296.795C486.59 300.594 482.291 304.63 477.345 306.969C471.214 309.867 464.981 313.555 459.075 317.646C451.211 323.094 437.107 324.358 433.028 329.509C430.363 332.874 442.1 339.519 447.1 343.21C458.329 351.5 470.163 359.843 480.914 368.971C489.061 375.889 497.997 381.437 506.28 388.249C511.609 392.632 516.279 397.019 521.809 400.794C528.057 405.059 538.272 413.217 544.023 418.346L505.967 428.749C495.967 426.546 492.284 423.697 488.82 421.424V421.424ZM439.99 271.743C446.13 267.877 450.897 260.427 440.996 256.592C434.341 254.014 420.565 246.294 418.842 249.26C417.969 250.761 420.466 253.722 420.796 256.07C421.414 260.457 419.887 265.242 418.983 269.414C418.167 273.183 412.609 287.013 418.918 284.188C426.36 280.855 433.024 276.129 439.99 271.743Z" fill="url(#paint2_linear)"/>
<path d="M613.86 411.639L539.909 403.92C535.679 404.331 528.241 396.273 526.213 392.437C524.227 388.68 522.31 385.332 521.496 380.555C520.512 374.781 517.615 369.225 517.072 363.173C516.043 351.727 512.943 340.4 514.15 328.597C515.916 311.319 512.289 293.676 515.009 276.365C516.287 268.231 517.111 260.061 517.795 251.996C518.217 247.018 521.483 243.537 523.526 239.473C525.502 235.543 527.522 228.136 531.891 228.361C536.039 228.575 540.815 231.565 545.095 233.383C547.844 234.551 548.606 237.838 550.092 240.118C551.086 241.643 553.947 240.957 554.774 242.823C556.401 246.497 557.77 251.483 559.558 255.712C562.65 263.024 560.576 271.041 559.927 278.613C559.336 285.496 557.054 292.184 556.084 299.037C555.505 303.125 556.915 306.707 556.741 310.271C556.612 312.922 555.026 312.293 555.026 318.578C555.026 323.277 555.688 327.709 556.49 332.308C557.163 336.17 557.067 340.127 557.528 344.016C558.194 349.639 559.376 356.492 562.156 360.907C566.021 367.043 572.719 353.633 575.727 349.279C579.951 343.166 581.441 334.794 583.41 327.776C585.168 321.514 586.015 315.017 588.127 308.939C590.136 303.155 591.115 296.836 593.053 290.983C595.072 284.882 596.087 278.451 597.261 272.041C598.707 264.151 601.079 256.221 603.436 248.36C605.461 241.606 608.117 235.095 610.808 228.309C611.306 227.054 612.007 226.359 613.108 225.725C619.81 221.859 624.125 219.856 631.202 216.612C632.834 215.863 634.023 216.005 635.146 217.23C639.993 222.516 646.033 228.002 646.777 234.71C648.149 247.093 643.992 258.903 643.82 271.191C643.661 282.574 640.277 293.709 636.742 304.435C635.642 307.772 633.76 310.659 633.076 314.084C632.282 318.068 632.452 322.493 631.992 326.535C631.294 332.663 627.762 339.493 626.993 344.725C626.829 345.84 627.907 347.249 627.664 348.345C627.027 351.211 624.971 354.013 625.024 357.087C625.125 362.82 625.235 370.863 623.972 377.114C622.167 386.049 627.29 387.077 627.025 392.308C626.843 395.898 624.032 400.555 621.526 403.293C618.997 406.056 616.468 409.465 613.86 411.639V411.639Z" fill="url(#paint3_linear)"/>
<path d="M684.205 411.743C682.658 404.179 682.448 396.252 681.309 388.525C679.52 376.388 680.545 363.927 682.242 351.755C683.829 340.379 682.965 328.643 685.208 317.449C685.982 313.591 687.626 309.535 687.422 305.611C687.242 302.161 685.599 299.97 685.91 296.974C686.056 295.57 687.631 295.303 687.696 293.501C687.797 290.684 682.556 287.484 684.682 285.148C686.55 283.095 688.998 281.78 688.968 278.416C688.896 270.32 680.424 278.233 675.868 278.245C671.331 278.258 666.513 280.739 662.149 280.709C659.475 280.69 656.942 279.276 655.11 276.293C652.95 272.772 648.342 269.489 648.098 266.173C647.99 264.705 649.839 262.98 651.35 260.585C654.002 256.379 653.566 251.244 656.13 246.876C657.921 243.825 659.844 242.586 662.071 237.555C664.298 232.524 670.404 228.899 677.55 228.308C688.105 227.434 698.772 225.331 709.442 224.512C711.699 224.338 714.611 223.232 717.272 223.289C722.825 223.408 728.131 225.049 730.246 225.062C731.802 225.072 733.996 223.954 734.709 223.946C737.325 223.918 739.652 225.227 742.199 225.657C747.666 226.58 751.569 229.156 753.927 234.286C756.146 239.113 758.112 243.754 759.15 249.242C760.443 256.078 759.149 263.308 753.104 267.683C748.599 270.943 742.195 270.822 737.738 270.694C735.909 270.642 735.256 271.236 734.922 273.627C734.085 279.629 733.531 287.023 733.198 292.947C732.766 300.643 730.575 307.381 730.075 314.835C729.571 322.35 726.171 328.974 725.508 336.403C724.914 343.053 722.882 349.279 722.089 355.688C721.23 362.631 722.424 369.865 720.901 376.669C719.577 382.582 718.427 388.881 719.675 393.54C720.057 394.966 724.306 394.538 724.023 396.106C723.776 397.471 718.975 397.863 718.934 402.308C718.883 407.939 713.133 412.963 710.573 414.98C708.013 416.998 702.099 422.438 698.063 421.621C692.46 420.487 694.023 419.788 686.232 414.88C685.239 414.254 684.466 413.019 684.205 411.743V411.743Z" fill="url(#paint4_linear)"/>
<path d="M754.023 392.308C749.298 386.026 748.784 374.852 749.641 366.611C750.606 357.326 748.964 348.764 744.025 340.55C739.257 332.62 745.332 322.659 749.881 315.386C753.029 310.356 754.364 305.122 757.48 300.371C760.288 296.088 760.505 290.334 762.196 285.31C764.007 279.929 766.971 275.059 769.105 269.537C771.813 262.529 774.028 255.174 777.568 248.477C781.088 241.815 788.889 236.108 796.556 234.398C803.475 232.855 806.285 242.993 811.497 239.622C815.924 236.758 821.844 236.625 827.006 234.905C831.931 233.264 837.337 231.451 841.425 234.547C844.711 237.035 849.729 234.794 852.419 237.446C858.406 243.35 865.589 247.891 870.626 254.809C876.266 261.664 880.293 269.394 882.739 278.021C888.872 299.656 888.548 323.296 881.208 344.269C877.044 356.166 867.25 365.177 859.55 374.91C856.322 378.991 855.948 383.557 849.818 386.088C843.238 388.804 841.808 398.819 834.243 398.24L809.209 415.898C800.698 417.146 791.943 421.139 783.391 417.891L754.023 392.308V392.308ZM804.169 375.988C807.711 375.12 810.144 372.971 813.08 371.271C817.042 368.977 821.072 365.491 824.708 362.078C828.06 358.932 830.641 354.994 832.588 351.121C835.166 345.993 835.896 339.391 839.526 334.424C844.661 327.396 844.958 318.012 843.618 310.076C842.292 302.219 842.25 292.42 835.1 286.538C829.748 282.137 823.878 281.886 817.922 284.962C811.559 288.249 804.564 292.029 801.124 298.341C798.678 302.828 797.531 307.988 797.064 313.312C796.43 320.545 792.192 327.124 793.004 334.373C793.822 341.678 792.971 348.51 792.025 355.704C791.28 361.362 793.089 366.789 795.541 371.42C796.988 374.153 801.073 376.746 804.169 375.988V375.988Z" fill="url(#paint5_linear)"/>
<path d="M563.617 399.902C553.505 400.363 547.13 413.304 552.742 421.652C553.217 424.389 554.777 426.7 556.179 429.058C550.603 430.16 544.987 435.079 539.335 433.183C532.359 427.495 518.859 428.837 516.617 438.715C514.704 444.256 516.298 450.597 517.71 455.715C509.079 454.676 497.39 458.39 496.46 468.371C495.173 475.471 500.146 481.716 502.929 487.402C502.241 493.442 495.059 491.807 491.867 495.652C481.9 503.924 483.436 519.765 491.648 528.652C494.236 531.865 497.45 534.566 500.992 536.683C496.808 545.439 487.392 554.33 490.71 564.808C494.395 574.016 508.645 576.687 514.585 568.277C516.672 567.003 519.346 561.393 520.117 566.215C526.356 575.593 539.67 576.278 549.679 574.09C566.897 569.929 581.756 558.382 591.773 544.09C599.511 558.617 610.847 574.4 628.335 576.933C632.651 577.25 637.187 574.223 641.148 574.84C646.563 581.383 655.894 578.202 661.835 574.277C670.611 569.403 677.056 561.667 683.117 553.808C691.564 560.667 704.009 567.254 714.429 560.308C719.171 557.732 723.114 553.933 727.273 550.527C733.48 559.397 744.584 568.145 756.023 564.308C764.789 574.968 781.461 575.523 793.648 570.746C800.559 568.836 805.036 562.995 810.242 558.527C811.748 569.109 818.628 579.809 829.835 581.777C839.756 585.129 851.374 581.403 857.709 573.208C859.636 571.964 860.89 568.587 862.96 571.527C869.38 574.982 875.491 581.572 883.46 579.652C891.528 577.69 898.509 571.782 903.554 565.433C905.563 561.038 906.84 555.525 911.96 553.902C914.223 549.743 916.045 553.579 918.125 556.119C925.85 565.876 938.188 575.72 951.492 572.058C965.735 567.688 969.279 549.745 964.929 537.027C962.228 528.305 954.054 522.973 948.585 516.152C945.476 513.313 940.781 510.577 937.867 508.621C953.743 508.32 968.231 493.862 966.617 477.652C966.854 467.429 956.056 461.018 946.867 460.465C956.617 453.318 958.29 437.35 948.867 429.152C941.381 420.563 927.169 415.67 917.599 423.804C909.889 428.872 901.353 437.159 891.492 435.183C887.624 432.541 881.806 435.1 879.304 430.371C871.631 423.756 865.833 413.983 855.398 411.59C848.31 409.485 840.771 410.153 833.585 410.746C824.915 412.806 820.546 424.217 826.273 431.246C828.901 434.868 832.163 439.561 829.023 443.871C823.844 457.513 816.454 470.311 811.429 483.902C807.442 473.666 791.33 474.401 787.148 484.183C786.681 482.431 787.852 475.872 788.15 472.27C789.963 455.983 793.431 438.747 789.648 422.558C785.836 417.279 779.109 415.016 775.398 409.652C769.336 404.822 760.03 405.035 754.085 409.902C742.069 409.266 736.684 422.109 727.648 427.465C719.134 432.942 709.487 437.476 699.367 439.152C692.707 428.905 678.918 421.478 667.023 427.121C657.769 430.22 649.934 441.898 655.898 451.09C658.361 457.44 660.375 464.263 665.179 469.09C665.718 475.251 663.078 481.32 663.17 487.581C660.826 505.091 657.37 522.744 649.304 538.433C637.296 535.18 626.452 525.39 619.46 517.09C631.807 516.005 643.119 502.563 637.773 490.246C637.21 487.927 633.149 486.457 635.742 484.121C638.575 477.935 642.191 470.855 638.992 464.183C641.872 459.971 643.027 454.36 643.492 449.152C646.358 438.385 635.656 430.648 627.804 425.652C621.542 421.95 614.165 420.003 606.835 420.527C606.513 412.402 599.941 405.926 592.21 404.371C583.17 400.794 573.322 399.631 563.617 399.902V399.902Z" fill="black"/>
<path d="M551.242 386.09C541.13 386.551 534.755 399.491 540.367 407.84C540.842 410.576 542.402 412.887 543.804 415.246C538.228 416.348 532.612 421.266 526.96 419.371C519.984 413.682 506.484 415.025 504.242 424.902C502.329 430.444 503.923 436.785 505.335 441.902C496.704 440.863 485.015 444.578 484.085 454.558C482.798 461.658 487.771 467.904 490.554 473.59C489.866 479.629 482.684 477.994 479.492 481.84C469.525 490.112 471.061 505.952 479.273 514.84C481.861 518.053 485.075 520.753 488.617 522.871C484.433 531.626 475.017 540.517 478.335 550.996C482.02 560.203 496.27 562.875 502.21 554.465C504.297 553.19 506.971 547.58 507.742 552.402C513.981 561.78 527.295 562.465 537.304 560.277C554.522 556.117 569.381 544.569 579.398 530.277C587.136 544.805 598.472 560.588 615.96 563.121C620.276 563.437 624.812 560.41 628.773 561.027C634.188 567.571 643.519 564.389 649.46 560.465C658.236 555.591 664.681 547.855 670.742 539.996C679.189 546.855 691.634 553.442 702.054 546.496C706.796 543.92 710.739 540.12 714.898 536.715C721.105 545.585 732.209 554.333 743.648 550.496C752.414 561.156 769.086 561.711 781.273 556.933C788.184 555.024 792.661 549.183 797.867 544.715C799.373 555.296 806.253 565.997 817.46 567.965C827.381 571.317 838.999 567.59 845.334 559.395C847.261 558.152 848.515 554.775 850.585 557.715C857.005 561.17 863.116 567.759 871.085 565.84C879.153 563.878 886.134 557.969 891.179 551.621C893.188 547.226 894.465 541.713 899.585 540.09C901.848 535.931 903.67 539.767 905.75 542.306C913.475 552.064 925.813 561.907 939.117 558.246C953.36 553.876 956.904 535.932 952.554 523.215C949.853 514.492 941.679 509.16 936.21 502.34C933.101 499.5 928.406 496.764 925.492 494.808C941.368 494.508 955.856 480.05 954.242 463.84C954.479 453.617 943.681 447.206 934.492 446.652C944.242 439.505 945.915 423.538 936.492 415.34C929.006 406.751 914.794 401.857 905.224 409.992C897.514 415.059 888.978 423.347 879.117 421.371C875.249 418.729 869.431 421.288 866.929 416.558C859.256 409.944 853.458 400.17 843.023 397.777C835.935 395.672 828.396 396.34 821.21 396.933C812.54 398.993 808.171 410.404 813.898 417.433C816.526 421.055 819.788 425.748 816.648 430.058C811.469 443.7 804.079 456.499 799.054 470.09C795.067 459.853 778.955 460.589 774.773 470.371C774.306 468.619 775.477 462.059 775.775 458.457C777.588 442.17 781.056 424.934 777.273 408.746C773.461 403.467 766.734 401.203 763.023 395.84C756.961 391.009 747.655 391.222 741.71 396.09C729.694 395.454 724.309 408.297 715.273 413.652C706.759 419.129 697.112 423.663 686.992 425.34C680.332 415.093 666.543 407.666 654.648 413.308C645.394 416.408 637.559 428.085 643.523 437.277C645.986 443.628 648 450.451 652.804 455.277C653.343 461.438 650.703 467.508 650.795 473.768C648.451 491.279 644.995 508.931 636.929 524.621C624.921 521.367 614.077 511.578 607.085 503.277C619.432 502.193 630.744 488.75 625.398 476.433C624.835 474.115 620.774 472.644 623.367 470.308C626.2 464.122 629.816 457.042 626.617 450.371C629.497 446.159 630.652 440.547 631.117 435.34C633.983 424.573 623.281 416.835 615.429 411.84C609.167 408.138 601.79 406.191 594.46 406.715C594.138 398.59 587.566 392.114 579.835 390.558C570.795 386.981 560.947 385.818 551.242 386.09V386.09Z" fill="black"/>
<path d="M553.992 392.183C547.292 390.778 541.004 399.326 546.054 404.652C545.862 410.587 552.988 415.552 553.398 420.027C543.776 419.562 535.617 426.318 526.273 426.59C522.235 422.92 514.611 418.996 510.617 424.902C507.697 431.664 510.58 439.479 513.492 445.683C514.213 447.085 517.635 450.216 516.679 450.402C509.522 447.414 500.772 447.054 493.492 449.59C486.624 454.351 490.978 464.181 495.523 468.871C499.165 473.012 494.563 477.793 493.273 481.871C491.078 484.916 486.3 483.107 483.835 486.246C477.215 490.942 477.049 500.354 481.273 506.683C484.254 512.733 489.787 518.768 497.085 518.59C493.474 527.986 486.856 536.268 483.179 545.34C483.373 551.28 490.864 556.73 495.867 551.965C504.585 545.194 510.932 535.977 518.273 527.777C526.336 517.946 533.052 506.429 538.242 495.246C540.989 494.506 542.229 495.491 543.398 497.902C546.08 501.285 552.443 505.571 547.773 510.09C539.829 521.741 529.851 532.209 517.679 539.402C513.539 541.828 509.773 548.716 515.148 551.777C520.057 554.303 525.079 556.445 530.804 555.183C552.432 552.688 569.757 536.527 579.992 518.215C587.403 533.481 596.584 550.782 613.398 556.902C619.869 557.633 626.373 554.34 632.367 553.683C632.045 558.12 637.213 560.611 640.554 557.808C653.849 553.458 662.901 540.964 669.929 530.433C673.881 537.158 681.866 539.58 688.179 543.371C697.418 545.467 704.453 537.036 711.148 532.084C712.945 530.636 714.947 528.299 716.679 527.496C719.342 535.287 726.349 540.916 733.304 544.808C737.379 546.562 742.454 544.831 745.617 542.996C751.045 554.562 766.041 555.251 776.835 552.09C783.237 550.729 788.812 546.195 791.898 540.808C798.204 540.113 800.807 530.261 794.429 527.746C793.103 525.867 792.437 521.147 795.835 522.183C803.294 520.251 808.239 513.328 813.492 508.183C815.796 505.737 818.713 501.794 820.585 500.027C818.069 507.152 815.278 514.62 811.273 520.871C801.399 527.709 802.251 541.674 806.117 551.652C808.183 556.656 812.448 561.091 817.929 561.277C822.712 564.844 828.397 563.015 833.46 561.152C838.223 561.042 838.896 555.206 842.804 553.808C845.79 551.356 845.306 545.331 847.21 543.496C849.414 546.549 849.962 550.933 853.867 552.715C858.005 554.601 861.33 557.771 865.21 559.871C872.488 561.841 878.152 555.298 883.523 551.558C887.193 548.437 888.061 543.248 889.835 539.371C897.101 535.218 903.461 528.062 907.992 521.933C907.143 524.872 903.198 527.808 905.21 531.496C907.423 537.084 913.08 539.992 916.148 544.871C922.279 551.005 932.819 555.677 941.054 551.121C946.619 545.983 950.146 537.385 947.367 529.871C947.801 524.537 945.366 519.458 940.835 516.683C936.466 512.263 933.456 506.358 927.682 503.392C920.989 500.24 914.233 492.891 906.242 495.246C904.167 496.58 904.628 495.736 906.304 494.433C909.526 492.162 912.201 487.279 915.898 486.902C926.047 491.344 938.694 487.436 944.429 477.996C947.737 474.803 948.504 469.86 947.71 465.808C950.466 458.814 942.121 454.088 936.398 452.933C930.481 452.714 924.585 451.705 918.71 451.715C911.164 452.314 905.76 459.016 898.117 459.027C909.533 452.563 922.95 448.876 932.835 440.027C938.316 434.239 938.378 424.044 931.554 419.246C926.287 412.867 915.318 408.32 908.617 415.183C899.519 421.432 889.663 429.002 878.117 427.996C874.875 425.381 870.01 424.656 866.492 426.34C864.554 419.868 857.048 417.631 853.992 411.84C847.711 404.799 837.578 400.224 828.179 403.308C824.034 401.891 818.363 402.92 817.617 407.996C816.013 415.14 825.526 418.951 823.773 426.308C822.351 437.349 814.834 446.232 811.452 456.707C804.87 471.688 798.551 486.787 792.054 501.808C791.385 492.116 793.439 482.402 793.835 472.933C791.849 466.668 781.631 467.557 780.117 473.715C776.56 479.344 772.099 484.319 768.085 489.59C766.705 463.869 774.737 438.44 772.617 412.808C770.752 408.109 764.409 408.011 762.335 403.402C758.547 399.062 751.468 395.716 746.742 400.496C744.447 401.566 742.545 403.149 740.054 402.027C731.218 403.606 727.784 413.266 720.273 417.34C709.793 424.859 697.08 429.808 684.742 432.34C681.187 428.75 678.918 423.917 674.523 421.09C666.521 414.37 652.801 417.517 648.148 426.715C645.839 430.925 648.835 434.886 650.992 438.246C651.514 443.032 653.232 447.597 657.398 450.308C660.917 456.727 656.962 464.277 657.242 471.215C654.969 491.898 649.772 513.716 640.367 531.527C634.337 530.161 628.089 528.983 623.054 524.902C610.517 517.44 601.029 506.034 590.96 495.933C591.885 493.134 595.587 491.703 597.179 494.808C603.888 499.773 614.029 497.041 618.023 489.965C623.268 484.971 620.783 474.941 613.335 473.902C610.72 472.98 608.638 472.546 612.492 472.09C616.964 470.944 619.868 466.405 619.367 462.027C624.072 458.79 621.233 451.796 618.835 448.621C622.975 446.074 625.808 440.743 624.023 436.09C628.105 431.384 623.769 424.866 619.273 422.433C611.313 414.512 598.679 409.577 587.929 414.746C588.304 409.139 589.737 400.703 582.773 398.433C573.862 394.007 563.938 391.794 553.992 392.183V392.183ZM573.46 447.402C576.51 447.657 582.884 447.637 583.992 448.558C580.7 450.252 577.243 452.384 573.554 452.621C574.013 451.123 571.167 446.977 573.46 447.402H573.46ZM863.148 447.84C865.414 450.837 869.574 453.572 871.429 455.933C864.609 459.876 861.27 467.909 853.867 471.308C849.083 473.822 847.125 478.984 846.804 484.058C845.675 487.793 843.083 492.193 846.148 495.715C843.81 495.918 840.678 501.811 840.929 497.308C840.675 491.443 838.24 484.747 840.443 479.222C849.07 469.54 857.8 459.591 862.992 447.652L863.148 447.84ZM730.242 489.027C730.619 492.047 731.51 494.99 727.898 492.715C726.414 491.879 722.913 492.601 722.46 492.59C725.06 491.7 728.222 490.011 730.242 489.027ZM686.71 497.215C689.064 501.975 695.142 504.83 699.023 505.933C694.407 508.596 688.557 510.209 683.148 508.183C679.363 508.418 685.943 501.081 685.883 498.398C686.24 498.418 686.275 495.994 686.71 497.215ZM899.242 500.683C897.592 503.291 901.153 507.558 896.893 507.971C891.595 510.271 884.877 512.557 880.148 513.746C886.024 508.896 893.643 504.9 899.242 500.683ZM855.71 503.652C857.996 505.9 861.174 508.006 864.023 508.621C860.062 510.75 855.252 511.587 852.21 515.183C848.866 517.139 853.16 511.233 853.398 509.683C854.532 508.172 854.817 504.045 855.71 503.652Z" fill="white"/>
<path d="M555.117 398.308C551.215 398.391 549.117 398.808 550.617 400.308C551.617 401.308 557.023 404.308 554.023 404.308C552.641 404.308 550.672 403.308 552.679 406.308C555.109 409.939 560.358 419.677 561.523 421.808C564.53 427.312 555.365 425.308 550.023 426.308C544.713 427.302 536.114 430.715 531.023 432.308C527.775 433.325 524.836 433.117 523.023 431.808C517.023 427.479 515.038 425.978 515.492 430.308C516.437 439.308 517.96 443.36 522.023 446.308C523.401 447.308 523.395 448.308 523.617 450.308C524.28 456.286 522.57 471.308 518.023 480.308C516.513 483.297 509.024 487.882 505.023 489.308C501.022 490.734 500.025 489.688 507.117 483.683C509.88 481.344 512.523 478.194 515.023 474.777C517.557 471.314 520.026 469.296 519.929 465.84C519.757 459.668 516.642 453.938 506.023 454.308C500.346 454.507 496.525 453.68 496.023 455.308C495.406 457.308 497.413 462.308 501.648 467.308C503.476 469.467 503.523 471.308 503.023 473.308C502.326 476.095 498.081 486.914 496.023 488.308C493.965 489.703 490.735 489.176 488.554 490.308C484.687 492.315 482.756 496.733 486.023 502.746C489.023 508.267 492.616 512.742 496.085 512.746C499.9 512.751 503.023 507.308 505.742 501.871C507.511 498.332 511.215 493.241 513.023 492.308C514.83 491.376 514.302 494.38 511.335 500.84C508 508.104 505.327 515.255 502.023 522.308C498.719 529.362 495.177 536.502 490.335 543.308C486.506 548.691 492.535 542.988 493.023 543.308C493.511 543.628 491.293 546.399 491.023 546.902C490.023 548.768 491.776 548.405 496.335 543.621C508.541 530.814 520.308 517.054 528.617 501.34C532.608 493.791 534.163 486.466 537.023 478.308C539.883 470.151 543.036 461.321 545.867 453.121C546.938 450.019 543.247 449.405 544.023 447.308C544.763 445.308 546.144 445.429 547.023 446.308C549.023 448.308 548.359 455.398 547.023 460.308C545.806 464.779 544.461 470.251 542.023 476.308C539.585 482.365 536.71 488.413 539.023 489.308C541.23 490.163 544.023 484.308 546.023 484.308C547.954 484.308 545.543 489.964 547.023 492.308C549.984 496.997 556.023 502.491 556.023 506.308C556.023 512.308 544.023 524.308 536.023 533.308C533.539 536.099 524.261 542.483 520.023 545.308C514.023 549.308 526.47 545.049 527.023 546.308C527.462 547.308 518.998 549.308 524.523 549.308C531.009 549.308 536.753 548.69 542.023 546.308C547.293 543.926 552.103 540.588 554.023 539.308C560.023 535.309 566.249 528.429 571.023 521.308C575.797 514.188 578.523 507.308 580.023 507.308C583.023 507.308 584.485 514.582 588.023 521.308C590.579 526.167 597.912 538.039 602.023 542.308C606.134 546.578 611.023 549.308 614.023 551.308L628.648 548.308C633.034 547.763 637.814 544.359 640.023 539.308C641.512 535.905 636.159 538.032 630.21 535.34C622.656 531.92 615.468 527.421 609.023 522.308C602.578 517.196 597.197 510.75 591.367 504.715C589.435 502.714 587.399 500.618 585.46 499.465C583.543 498.323 585.072 494.742 586.242 492.465C588.582 487.91 594.075 484.492 599.148 488.715C602.107 491.178 603.857 491.308 606.023 491.308C610.023 491.308 610.52 488.964 612.023 487.308C614.404 484.687 616.669 482.331 613.398 480.496C609.471 478.294 600.439 476.336 597.023 476.871C591.653 477.712 591.023 479.308 590.023 476.308C589.144 473.67 589.038 470.742 590.648 467.308C592.555 463.24 605.142 466.939 608.554 466.84C610.26 466.79 612.72 465.915 613.023 464.683C614.023 460.62 611.496 461.879 612.023 458.808C612.52 455.91 615.023 459.794 616.023 456.871C616.584 455.232 610.582 447.515 605.023 448.308C598.02 449.308 587.198 452.898 582.929 455.84C578.155 459.13 570.215 459.069 569.023 458.308C567.456 457.308 568.154 452.388 566.148 447.777C564.692 444.43 562.023 444.308 561.023 443.308C560.023 442.308 563.484 441.381 567.023 441.308C574.1 441.163 588.229 442.229 591.523 443.496C595.738 445.117 603.816 447.591 609.023 446.308C611.626 445.667 616.701 443.291 618.023 441.308C620.023 438.308 616.023 436.308 616.023 434.308C616.023 431.877 622.023 433.308 619.023 430.308C617.396 428.681 614.402 426.112 612.023 424.308C607.264 420.701 601.632 417.939 597.71 418.621C590.386 419.894 585.49 422.232 583.023 419.308C581.79 417.846 582.023 412.308 582.023 409.308C582.023 406.661 583.331 405.462 581.023 404.308C575.023 401.308 567.282 398.403 559.554 398.308C557.922 398.288 556.417 398.281 555.117 398.308V398.308ZM752.429 403.808C751.242 403.883 752.066 406.936 750.679 407.308C749.992 407.493 749.536 405.962 748.554 405.996C747.573 406.03 746.69 408.258 745.398 408.308C742.813 408.408 740.18 407.098 738.492 408.777C734.492 412.756 727.408 419.779 720.898 424.465C715.528 428.22 698.023 435.305 690.023 437.84C687.891 438.515 682.023 439.308 680.023 436.308C677.154 432.006 670.023 423.308 665.023 423.308C662.023 423.308 653.367 426.59 653.367 429.59C653.367 433.59 657.023 433.308 657.023 437.308C657.023 442.308 659.666 444.396 662.023 446.754C666.023 450.754 664.845 457.592 664.085 463.933C662.143 480.15 660.298 496.354 654.96 511.996C650.311 525.621 643.693 538.365 639.054 551.808C649.909 548.063 656.895 539.184 663.085 529.496C671.388 516.503 678.243 502.577 683.367 487.933C684.781 483.892 687.46 473.19 688.71 473.308C689.595 473.392 689.567 476.944 688.96 481.027C688.131 486.612 690.107 492.55 693.554 496.215C696.785 499.65 700.894 501.064 703.429 498.09C705.45 495.718 706.887 492.45 707.023 496.09C707.188 500.521 706.037 499.818 705.117 506.433C704.439 511.305 702.023 510.97 698.023 512.652C695.51 513.709 693.488 514.89 690.679 515.308C687.628 515.763 684.775 513.596 682.023 514.308C679.83 514.876 678.296 516.828 676.679 517.871C675.341 518.735 677.531 521.446 677.023 522.808C676.371 524.556 674.067 525.488 674.648 526.808C676.479 530.971 683.182 533.397 687.429 536.308C690.355 538.314 691.019 538.409 694.023 536.965C704.754 531.806 713.165 520.331 724.023 514.902C726.023 513.902 727.034 515.308 725.617 517.308C724.322 519.136 721.889 521.49 722.023 524.308C722.195 527.913 726.023 531.308 730.023 535.308C732.733 538.018 735.158 539.629 737.554 539.558C741.703 539.436 745.345 535.369 745.617 531.308C745.817 528.314 745.395 525.008 746.773 527.558C750.735 534.893 750.246 540.198 752.023 542.308C756.677 547.835 764.023 549.308 777.304 545.652C781.623 544.463 785.091 541.667 786.585 536.59C787.414 533.773 791.265 535.066 792.023 534.308C792.749 533.582 791.861 533.049 790.023 531.558C788.79 530.558 788.121 529.978 788.023 528.308C787.023 511.308 783.903 494.765 787.929 477.746C788.815 474.001 787.278 473.19 785.523 476.308C782.537 481.613 773.362 492.196 770.617 496.277C765.64 503.677 765.343 507.653 764.023 504.308C761.949 499.056 761.8 482.387 762.085 476.621C762.873 460.738 765.671 445.104 766.617 429.277C766.818 425.91 768.044 417.825 767.023 415.308C765.567 411.72 765.729 416.261 764.367 414.715C761.367 411.311 760.438 408.97 753.617 404.308C753.077 403.94 752.703 403.791 752.429 403.808H752.429ZM834.023 408.465C832.689 408.468 830.332 408.841 828.582 409.882C827.916 410.278 824.578 407.863 823.578 408.863C822.319 410.122 826.852 414.576 828.523 418.121C832.813 427.224 827.046 436.616 822.96 445.527C813.111 467.008 804.607 489.11 794.523 510.465C791.895 516.029 793.408 517.579 797.023 515.308C802.238 512.032 810.933 502.272 813.085 499.465C815.521 496.289 821.946 489.385 825.023 486.308C829.023 482.308 829.023 486.308 827.992 495.308C826.521 505.174 822.023 510.308 819.023 520.308C818.601 521.715 817.323 524.534 814.781 526.007C810.732 528.353 809.533 532.308 809.533 538.308C809.533 543.881 811.28 549.651 814.023 553.308C817.023 557.308 816.023 552.806 818.023 553.308C819.18 553.599 819.999 555.897 821.023 556.308C823.111 557.147 825.712 558.053 827.343 556.636C830.023 554.308 829.974 556.175 832.566 555.308C835.556 554.308 833.287 552.781 834.023 551.308C835.023 549.308 837.847 550.867 839.023 549.308C839.922 548.115 839.314 545.08 840.023 543.308C841.075 540.679 843.023 540.308 843.023 537.308C843.023 532.838 842.112 526.774 843.023 521.308C843.95 515.741 847.247 507.86 849.023 504.308C851.023 500.308 849.023 500.308 847.023 502.308C843.984 505.348 840.786 508.494 839.023 509.813C837.904 510.649 836.763 510.853 836.023 508.308C835.44 506.304 833.831 484.351 833.023 480.308C832.62 478.296 834.288 476.856 836.531 474.308C839.861 470.524 845.418 465.268 850.835 457.09C856.527 448.497 861.023 439.308 861.023 429.308C861.023 425.308 858.248 425.685 856.023 423.308C853.744 420.874 851.369 418.097 849.429 415.996C843.094 409.133 839.047 408.452 834.023 408.465V408.465ZM914.578 418.308C903.023 426.308 893.53 433.985 879.023 434.308C874.256 434.415 873.561 431.308 871.023 431.308C869.023 431.308 872.501 434.308 870.023 434.308C868.748 434.308 868.023 431.763 866.023 432.308C863.71 432.939 863.023 437.308 865.054 440.433C867.423 444.078 874.023 450.308 878.023 453.308C882.251 456.48 884.997 454.877 889.023 452.308C891.263 450.879 894.659 448.215 898.023 446.308C903.991 442.925 903.746 444.742 900.023 447.308C895.079 450.717 877.954 460.697 876.023 462.308C874.306 463.741 876.023 459.801 874.023 461.308C869.305 464.863 866.738 468.989 863.023 472.308C860.434 474.621 856.582 475.77 854.023 479.308C852.629 481.237 852.856 485.451 852.489 487.308C852.049 489.531 848.931 491.453 852.023 493.308C857.023 496.308 861.108 500.932 865.023 502.843C866.272 503.452 868.158 501.42 870.023 500.308C871.435 499.467 873.396 499.325 875.023 498.308C878.383 496.209 883.766 491.592 886.023 490.308C888.901 488.672 888.208 491.277 884.398 495.621C878.404 502.454 872.02 510.643 865.023 515.308C862.023 517.308 864.023 514.308 861.023 516.308C858.575 517.94 856.294 519.861 853.023 521.308C850 522.645 849.361 523.52 850.023 525.037C850.391 525.879 849.023 526.715 849.023 528.308C849.023 529.986 849.973 530.196 850.023 531.073C850.144 533.193 848.705 534.802 849.511 536.685C850.301 538.532 852.482 540.718 854.023 541.778C857.023 543.843 852.023 543.308 856.023 546.834C857.66 548.815 860.354 549.051 862.023 550.308C864.761 552.371 866.467 554.773 869.023 554.308C870.371 554.064 871.374 552.719 872.53 551.842C874.554 550.308 874.023 551.798 879.023 547.308C884.284 542.584 882.023 540.308 883.023 537.819C883.819 535.836 885.405 534.573 887.023 533.764C892.029 531.259 896.286 526.8 900.023 522.308C903.396 518.254 908.201 509.763 910.201 512.763C911.77 515.116 913.001 519.073 914.023 521.308C915.554 524.658 913.522 525.827 912.023 527.308C909.481 529.821 911.023 530.308 916.023 535.308C917.412 536.697 920.147 541.183 922.023 542.308C928.354 546.107 937.192 549.802 939.023 544.308C940.023 541.308 942.519 538.962 942.5 536.308C942.486 534.432 941.334 532.671 941.023 530.308C940.818 528.755 941.659 526.52 941.023 525.308C939.903 523.176 937.51 522.674 936.023 520.799C933.484 517.6 931.252 513.631 928.71 511.621C923.912 507.826 909.756 499.257 908.756 500.598C907.804 501.875 910.655 502.676 910.023 503.308C909.023 504.308 906.14 500.979 905.023 502.308C904.441 503 904.838 504.691 906.023 505.819C908.072 507.768 910.023 508.308 907.179 509.465C896.023 516.308 881.633 518.967 869.023 524.09C866.023 525.308 867.582 521.369 868.023 519.831C870.104 512.582 880.529 505.762 886.898 501.84C894.466 497.179 905.504 487.362 912.023 480.843C914.023 478.843 914.023 479.308 920.023 481.764C923.348 483.125 928.558 483.191 932.023 481.308C936.425 478.916 940.013 474.329 942.023 470.308C943.023 468.308 939.945 467.765 940.023 466.308C940.096 464.937 943.023 464.308 942.023 462.308C941.331 460.924 937.638 460.011 936.023 459.308C931.425 457.308 929.956 458.936 927.023 458.753C925.006 458.628 924.037 457.733 921.023 457.621C915.617 457.421 911.837 460.958 907.023 463.308C903.563 464.998 898.739 464.533 895.023 465.308C884.047 467.598 874.023 474.308 865.179 480.215C863.169 481.557 862.845 478.055 863.561 476.308C865.24 472.212 873.278 467.992 876.867 465.308C886.339 458.227 899.337 451.503 910.023 446.308C915.904 443.449 919.843 442.524 925.023 438.805C928.502 436.308 930.953 432.889 931.023 430.308C931.143 425.86 926.753 422.832 922.023 419.308C920.023 417.819 916.75 416.805 914.578 418.308V418.308ZM736.023 429.308C740.684 429.621 738.023 443.308 737.023 446.308C736.023 449.308 734.023 444.308 729.21 439.246C726.56 436.458 721.671 434.718 719.773 435.715C711.023 440.308 699.579 452.235 693.023 459.308C691.971 460.443 691.465 463.156 694.023 462.308C697.72 461.084 699.902 460.817 703.023 460.308C706.023 459.82 708.513 467.308 707.523 468.308C706.041 469.806 704.043 472.965 702.367 472.965C700.258 472.965 698.79 470.546 697.023 469.308C694.997 467.889 692.339 467.136 691.023 465.308C689.662 463.419 690.021 460.605 690.023 457.308C690.025 454.282 689.738 451.404 692.023 448.308C697.216 441.227 708.828 438.601 716.023 435.754C721.023 433.775 725.254 432.382 730.023 431.308C734.022 430.408 732.465 429.07 736.023 429.308ZM735.023 454.308C736.374 457.461 736.003 463.314 735.492 466.965C735.023 470.308 731.683 464.267 727.023 464.277C724.613 464.282 721.768 466.05 720.398 465.308C719.026 464.565 719.687 462.586 719.429 461.308C719.219 460.266 716.132 459.274 716.46 458.308C716.934 456.918 719.77 457.324 722.398 456.683C724.64 456.137 726.77 456.19 729.117 454.902C730.085 454.371 732.023 453.308 732.023 453.308C733.546 452.473 734.36 452.761 735.023 454.308ZM723.023 471.057C724.841 471.078 726.258 473.637 725.804 475.996C725.438 477.9 721.098 480.147 719.023 480.308C717.619 480.417 716.676 478.358 719.754 473.308C720.364 472.308 721.749 471.042 723.023 471.057ZM568.46 472.058C568.661 472.07 568.855 472.153 569.023 472.308C572.634 475.651 565.813 484.701 558.71 485.746C551.511 486.805 544.156 485.344 553.023 478.308C555.864 476.054 559.178 473.615 561.554 474.183C564.826 474.965 567.055 471.979 568.46 472.058ZM740.023 509.308C740.023 515.308 734.88 503.551 727.695 499.162C723.023 496.308 726.032 499.655 725.023 500.308C724.491 500.653 721.804 498.129 721.023 499.308C720.023 500.819 727.023 505.308 723.71 506.183C720.257 507.095 716.498 508.097 715.538 506.308C713.688 502.862 714.401 494.796 717.023 489.308C718.088 487.079 720.023 488.308 724.023 485.308C726.116 483.739 727.569 483.489 729.054 482.308C731.57 480.308 725.577 479.368 729.023 478.308C729.93 478.029 732.967 475.349 733.323 473.308C734.023 469.308 734.871 470.315 735.023 472.308C735.645 480.452 736.34 488.276 737.023 496.308C737.398 500.718 740.023 504.308 740.023 509.308ZM707.023 476.777C708.18 477.753 708.297 479.728 707.023 481.308C704.994 483.825 700.576 485.3 700.023 484.652C698.023 482.308 705.518 475.508 707.023 476.777ZM582.023 503.308C583.917 503.308 584.94 506.282 583.585 506.965C582.48 507.521 579.354 503.308 582.023 503.308Z" fill="url(#paint6_linear)"/>
<path d="M749.398 541.34C745.599 541.111 743.854 546.071 740.085 544.152C735.67 543.527 727.347 544.248 728.273 550.527C729.996 553.199 725.786 554.026 725.46 556.59C724.282 560.405 718.427 563.727 721.773 568.121C723.324 570.977 726.958 570.463 729.273 570.621C733.024 573.104 737.664 569.697 740.867 569.777C745.8 572.992 751.262 567.001 750.835 562.027C751.189 558.806 752.328 560.42 754.398 561.246C749.585 562.789 749.916 569.764 754.742 571.09C764.36 574.378 777.798 568.425 777.804 557.277C776.316 554.346 779.117 554.751 780.46 552.902C782.971 547.964 776.682 544.134 772.242 545.246C767.384 545.528 761.034 545.148 757.085 545.558C755.863 542.525 752.551 540.968 749.398 541.34ZM922.523 541.933C919.49 541.501 918.498 545.875 915.554 544.371C909.754 544.054 899.645 544.064 899.273 551.871C899.19 554.55 903.451 555.278 900.867 557.808C898.126 564.018 902.607 571.93 909.804 571.527C914.704 573.11 923.749 571.854 922.867 565.058C921.784 560.432 916.058 560.346 912.648 559.371C915.464 557.838 918.074 555.399 921.273 556.34C923.461 555.328 924.91 555.566 927.085 556.34C929.064 556.491 925.276 559.692 925.367 561.215C921.361 565.661 924.894 575.346 931.429 571.34C933.459 570.525 934.155 566.655 936.023 569.746C943.966 574.467 952.643 566.509 955.023 559.152C957.795 553.464 950.438 546.815 946.273 552.09C944.762 550.471 943.093 549.908 943.585 547.34C942.837 542.189 936.139 542.884 933.742 545.402C932.415 541.958 928.194 541.914 925.46 542.558C924.939 541.425 923.513 541.976 922.523 541.933ZM593.304 543.84C586.229 547.167 585.911 556.027 583.898 562.621C583.495 568.41 589.336 571.929 594.554 571.558C601.725 572.93 608.493 568.566 611.617 562.308C611.637 560.021 614.078 560.141 614.273 561.152C609.59 563.142 609.505 571.042 615.117 571.683C625.946 574.773 639.002 562.1 633.554 551.527C628.754 546.806 620.614 548.428 614.867 550.402C612.556 550.908 611.774 554.405 609.492 552.496C603.557 550.832 601.797 557.939 597.929 560.433C594.107 561.415 598.07 556.016 598.585 554.715C602.178 550.428 599.772 542.329 593.304 543.84Z" fill="black"/>
<path d="M750.023 545.308C746.831 545.475 743.051 549.606 745.023 552.703C746.399 554.864 751.061 553.383 752.677 551.308C754.234 549.308 754.186 545.091 750.023 545.308ZM923.023 545.899C921.456 546.038 920.25 547.63 919.78 549.064C919.311 550.497 919.628 552.292 921.179 552.402C921.959 552.458 923.43 550.505 924.21 548.95C924.99 547.396 925.031 545.721 923.023 545.899V545.899ZM927.335 546.527C925.69 547.618 925.415 549.981 926.023 551.308C926.631 552.635 928.114 553.123 929.466 550.712C930.032 549.702 930.556 548.462 930.242 547.477C929.929 546.492 928.785 545.566 927.335 546.527ZM750.401 548.308C751.763 549.656 749.023 552.308 747.549 550.933C745.969 549.458 749.023 546.945 750.401 548.308ZM938.179 547.402C935.506 548.308 933.97 553.171 932.395 556.308C930.677 559.732 928.029 563.625 927.707 567.308C927.544 569.163 929.815 567.966 930.837 566.473C931.859 564.981 932.882 562.778 933.47 561.779C934.243 560.466 935.257 558.803 936.739 558.004C938.221 557.206 939.836 557.488 938.617 559.527C936.903 562.393 936.408 564.974 938.023 566.308C939.638 567.642 942.963 567.504 945.648 565.402C947.773 563.738 950.025 561.225 951.023 558.308C952.069 555.253 951.251 553.857 950.023 554.308C948.795 554.76 948.233 557.556 947.023 559.308C946.321 560.324 945.258 562.101 943.728 562.996C941.974 564.024 939.948 564.055 941.648 561.308C943.489 558.333 944.023 555.308 943.023 554.308C941.196 552.481 939.239 554.931 938.023 554.308C937.356 553.967 938.922 551.246 939.483 550.088C940.045 548.93 939.853 546.834 938.179 547.402ZM593.148 548.433C591.202 550.8 590.224 554.51 589.294 557.644C588.41 560.622 586.217 566.056 591.023 566.902C594.288 567.477 600.604 568.266 603.023 566.308C605.313 564.455 606.469 562.502 608 560.216C611.498 554.993 606.244 555.206 604.49 559.308C602.834 563.183 597.556 565.895 594.054 563.902C589.497 561.308 594.599 554.174 596.023 550.807C597.164 548.109 594.59 546.679 593.148 548.433ZM734.362 551.891C738.338 551.686 740.556 552.082 738.364 553.308C734.121 555.682 738.668 559.158 737.71 561.433C736.409 564.527 730.436 562.266 730.242 565.223C729.991 569.049 736.811 567.208 739.023 565.308C740.392 564.133 742.012 562.031 742.023 560.308C742.033 558.585 740.598 557.245 740.399 555.933C740.258 555.003 741.812 554.652 742.654 552.985C743.496 551.318 743.217 548.335 741.614 548.308C739.614 548.275 736.898 548.183 734.023 548.308C731.428 548.421 731.594 552.034 734.362 551.891V551.891ZM916.427 548.308C913.725 548.308 908.583 548.156 905.118 549.371C902.615 550.248 902.935 552.308 904.437 552.308C906.023 552.308 908.305 552.17 910.023 552.308C912.901 552.541 906.356 555.308 905.023 558.308C903.746 561.182 903.445 565.196 906.708 566.686C907.83 567.198 911.865 568.114 915.023 567.973C918.181 567.833 920.463 566.635 918.054 564.933C915.272 562.968 905.481 564.496 908.464 558.308C909.694 555.756 913.068 554.558 915.526 553.308C917.432 552.34 918.841 548.308 916.427 548.308V548.308ZM774.023 549.308C772.113 549.308 764.023 549.308 761.023 549.308C757.916 549.308 757.023 551.308 761.023 551.308C762.782 551.308 770.271 551.308 774.023 551.308C778.023 551.308 778.023 549.308 774.023 549.308ZM618.054 553.433C614.132 555.021 613.397 556.526 615.023 556.946C616.649 557.366 620.637 556.701 623.054 555.84C627.058 554.413 628.061 559.309 625.023 562.308C623.679 563.635 621.149 563.568 618.994 563.828C616.838 564.087 613.307 566.233 615.023 567.308C617.944 569.138 623.053 567.82 626.023 565.308C628.73 562.962 630.769 559.944 631.054 556.465C631.395 552.308 627.006 552.647 623.41 552.647C622.361 552.647 619.017 553.044 618.054 553.433ZM759.023 553.78C754.669 554.308 752.023 558.308 758.023 557.308C761.734 556.69 772.208 555.272 770.023 560.308C768.854 563.003 766.133 564.17 762.117 564.465C761.158 564.535 758.023 564.182 756.486 564.733C753.847 565.678 753.648 567.261 759.023 567.78C764.614 568.319 769.209 566.401 772.148 562.433C773.799 560.204 775.585 554.922 771.023 553.741C768.557 553.103 761.818 553.442 759.023 553.78V553.78V553.78ZM746.459 555.867C743.322 556.539 741.978 565.61 743.063 566.433C744.676 567.657 746.2 565.143 746.61 563.201C747.02 561.258 747.339 559.023 748.21 557.465C748.903 556.226 747.244 555.699 746.459 555.867V555.867ZM725.773 563.402C722.93 566.892 727.156 567.912 729.34 564.308C730.312 562.704 731.689 560.308 733.023 557.308C733.923 555.285 730.974 554.674 730.242 556.465C729.285 558.803 727.567 561.199 725.773 563.402Z" fill="white"/>
<path d="M354.023 466.028L345.866 451.309L336.241 458.319L349.287 439.428L316.978 438.866L315.273 442.308H295.707L289.269 451.357L274.023 450.842L281.33 438.235L251.117 438.245L241.679 450.715C232.722 450.946 223.763 450.581 214.804 450.684L210.297 456.309C199.756 456.309 179.315 456.309 168.773 456.309C162.904 464.636 156.852 472.797 150.898 481.059C167.346 481.174 183.794 481.254 200.242 481.309L205.084 475.559L219.682 475.171C210.546 481.163 199.309 485.239 188.617 487.027C193.099 494.691 199.926 500.384 205.492 507.184C225.078 501.905 242.631 490.165 256.21 475.277L269.97 475.516C264.683 480.643 249.581 487.942 244.023 492.308L264.023 506.92C271.533 504.024 276.212 500.812 282.304 496.902L292.255 505.737C307.683 500.682 330.187 491.469 343.367 481.808C337.726 489.933 332.113 498.077 326.492 506.215C336.7 506.221 346.908 506.212 357.117 506.184C363.543 497.644 369.637 487.706 376.335 480.09C381.104 482.846 389.804 489.652 389.804 489.652L404.023 481.021L449.252 481.424L466.117 456.309H417.992L409.736 466.784C404.92 461.904 399.517 457.718 392.898 455.496L404.804 436.309H374.867L354.023 466.028V466.028Z" fill="white"/>
<path d="M394.023 442.308H378.067L337.929 500.215L354.023 500.17L374.023 472.308C380.841 475.21 384.023 477.789 390.085 482.34L406.103 472.308C395.273 461.185 388.814 459.289 382.648 460.621L394.023 442.308ZM254.023 443.777L245.111 456.767L218.284 456.683L209.163 469.505L235.21 469.439C232.582 473.534 221.331 482.308 214.767 485.439C209.554 487.925 198.81 490.912 198.81 490.912L207.505 500.297C224.023 495.808 243.932 481.121 253.523 469.277L277.972 469.234L285.499 457.289L263.125 456.969L271.117 443.84L254.023 443.777V443.777ZM321.304 445.308L287.015 493.176L294.023 498.751C294.023 498.751 309.856 494.141 319.025 489.619C329.333 484.536 339.927 476.993 349.169 470.121L344.023 460.181C337.381 464.768 323.364 476.945 315.683 477.111C315.683 477.111 332.056 455.728 338.054 445.34L321.304 445.308V445.308V445.308ZM299.398 448.652C294.023 454.25 291.42 461.062 286.21 466.808C277.075 476.884 267.144 486.481 254.951 492.652L265.367 500.59C276.686 494.625 296.038 477.839 303.246 467.327C306.613 462.418 311.653 455.247 314.023 449.331L299.398 448.652V448.652ZM171.902 462.308L162.609 475.165L196.798 475.315L205.614 462.308H171.902V462.308ZM420.867 462.308L411.917 474.662L446.236 474.907L454.773 462.308H420.867V462.308Z" fill="#FF0000" stroke="white" stroke-width="0.1"/>
<defs>
<linearGradient id="paint0_linear" x1="98.6555" y1="313.107" x2="246.85" y2="313.107" gradientUnits="userSpaceOnUse">
<stop stop-color="#FFE100"/>
<stop offset="1" stop-color="#D20000"/>
</linearGradient>
<linearGradient id="paint1_linear" x1="232.435" y1="314.375" x2="365.421" y2="314.375" gradientUnits="userSpaceOnUse">
<stop stop-color="#FFE100"/>
<stop offset="1" stop-color="#D20000"/>
</linearGradient>
<linearGradient id="paint2_linear" x1="363.757" y1="317.122" x2="544.023" y2="317.122" gradientUnits="userSpaceOnUse">
<stop stop-color="#FFE100"/>
<stop offset="1" stop-color="#D20000"/>
</linearGradient>
<linearGradient id="paint3_linear" x1="513.875" y1="313.896" x2="647.054" y2="313.896" gradientUnits="userSpaceOnUse">
<stop stop-color="#FFE100"/>
<stop offset="1" stop-color="#D20000"/>
</linearGradient>
<linearGradient id="paint4_linear" x1="648.093" y1="322.495" x2="759.605" y2="322.495" gradientUnits="userSpaceOnUse">
<stop stop-color="#FFE100"/>
<stop offset="1" stop-color="#D20000"/>
</linearGradient>
<linearGradient id="paint5_linear" x1="742.287" y1="325.999" x2="887.05" y2="325.999" gradientUnits="userSpaceOnUse">
<stop stop-color="#FFE100"/>
<stop offset="1" stop-color="#D20000"/>
</linearGradient>
<linearGradient id="paint6_linear" x1="702.244" y1="398.308" x2="702.244" y2="557.052" gradientUnits="userSpaceOnUse">
<stop stop-color="#170A88"/>
<stop offset="0.5" stop-color="#0784BE"/>
<stop offset="1" stop-color="#1CA2CE"/>
</linearGradient>
</defs>
</svg>
